<mxfile host="app.diagrams.net" modified="2024-06-04T15:55:52.596Z" agent="Mozilla/5.0 (Windows NT 10.0; Win64; x64) AppleWebKit/537.36 (KHTML, like Gecko) Chrome/125.0.0.0 Safari/537.36" etag="C9Hzd38nyDQEH21LqJ8Z" version="24.4.13" type="device">
  <diagram name="Страница — 1" id="9juGQukYNLaa784aJa0c">
    <mxGraphModel dx="1254" dy="647" grid="1" gridSize="10" guides="1" tooltips="1" connect="1" arrows="1" fold="1" page="1" pageScale="1" pageWidth="827" pageHeight="1169" math="0" shadow="0">
      <root>
        <mxCell id="0" />
        <mxCell id="1" parent="0" />
        <mxCell id="uM1ajFbvMHDyickijH2u-2" value="" style="rounded=0;whiteSpace=wrap;html=1;fillColor=none;fontFamily=Times New Roman;" parent="1" vertex="1">
          <mxGeometry x="340" y="180" width="500" height="650" as="geometry" />
        </mxCell>
        <mxCell id="uM1ajFbvMHDyickijH2u-3" style="rounded=0;orthogonalLoop=1;jettySize=auto;html=1;entryX=0;entryY=0.5;entryDx=0;entryDy=0;endArrow=classic;endFill=1;exitX=1;exitY=0.3333333333333333;exitDx=0;exitDy=0;exitPerimeter=0;fontFamily=Times New Roman;" parent="1" source="uM1ajFbvMHDyickijH2u-4" target="uM1ajFbvMHDyickijH2u-25" edge="1">
          <mxGeometry relative="1" as="geometry">
            <mxPoint x="360" y="275" as="targetPoint" />
          </mxGeometry>
        </mxCell>
        <mxCell id="uM1ajFbvMHDyickijH2u-4" value="Администратор" style="shape=umlActor;verticalLabelPosition=bottom;verticalAlign=top;html=1;outlineConnect=0;aspect=fixed;fontFamily=Times New Roman;" parent="1" vertex="1">
          <mxGeometry x="250" y="250" width="45" height="90" as="geometry" />
        </mxCell>
        <mxCell id="uM1ajFbvMHDyickijH2u-5" style="rounded=0;orthogonalLoop=1;jettySize=auto;html=1;entryX=0;entryY=0.5;entryDx=0;entryDy=0;endArrow=classic;endFill=1;exitX=1;exitY=0.3333333333333333;exitDx=0;exitDy=0;exitPerimeter=0;fontFamily=Times New Roman;" parent="1" source="uM1ajFbvMHDyickijH2u-7" target="uM1ajFbvMHDyickijH2u-27" edge="1">
          <mxGeometry relative="1" as="geometry" />
        </mxCell>
        <mxCell id="uM1ajFbvMHDyickijH2u-6" style="rounded=0;orthogonalLoop=1;jettySize=auto;html=1;entryX=0;entryY=0.5;entryDx=0;entryDy=0;endArrow=classic;endFill=1;exitX=1;exitY=0.3333333333333333;exitDx=0;exitDy=0;exitPerimeter=0;fontFamily=Times New Roman;" parent="1" source="uM1ajFbvMHDyickijH2u-7" target="uM1ajFbvMHDyickijH2u-39" edge="1">
          <mxGeometry relative="1" as="geometry" />
        </mxCell>
        <mxCell id="uM1ajFbvMHDyickijH2u-7" value="Менеджер" style="shape=umlActor;verticalLabelPosition=bottom;verticalAlign=top;html=1;outlineConnect=0;aspect=fixed;fontFamily=Times New Roman;" parent="1" vertex="1">
          <mxGeometry x="250" y="385" width="45" height="90" as="geometry" />
        </mxCell>
        <mxCell id="uM1ajFbvMHDyickijH2u-8" style="rounded=0;orthogonalLoop=1;jettySize=auto;html=1;entryX=0;entryY=0.5;entryDx=0;entryDy=0;endArrow=classic;endFill=1;exitX=1;exitY=0.3333333333333333;exitDx=0;exitDy=0;exitPerimeter=0;fontFamily=Times New Roman;" parent="1" source="uM1ajFbvMHDyickijH2u-12" target="uM1ajFbvMHDyickijH2u-33" edge="1">
          <mxGeometry relative="1" as="geometry" />
        </mxCell>
        <mxCell id="uM1ajFbvMHDyickijH2u-9" style="rounded=0;orthogonalLoop=1;jettySize=auto;html=1;entryX=0;entryY=0.5;entryDx=0;entryDy=0;endArrow=classic;endFill=1;exitX=1;exitY=0.3333333333333333;exitDx=0;exitDy=0;exitPerimeter=0;fontFamily=Times New Roman;" parent="1" source="uM1ajFbvMHDyickijH2u-12" target="uM1ajFbvMHDyickijH2u-17" edge="1">
          <mxGeometry relative="1" as="geometry" />
        </mxCell>
        <mxCell id="uM1ajFbvMHDyickijH2u-10" style="rounded=0;orthogonalLoop=1;jettySize=auto;html=1;entryX=0;entryY=0.5;entryDx=0;entryDy=0;endArrow=classic;endFill=1;exitX=1;exitY=0.3333333333333333;exitDx=0;exitDy=0;exitPerimeter=0;fontFamily=Times New Roman;" parent="1" source="uM1ajFbvMHDyickijH2u-12" target="uM1ajFbvMHDyickijH2u-32" edge="1">
          <mxGeometry relative="1" as="geometry" />
        </mxCell>
        <mxCell id="uM1ajFbvMHDyickijH2u-11" style="orthogonalLoop=1;jettySize=auto;html=1;rounded=0;entryX=0;entryY=0.5;entryDx=0;entryDy=0;endArrow=classic;endFill=1;exitX=1;exitY=0.3333333333333333;exitDx=0;exitDy=0;exitPerimeter=0;fontFamily=Times New Roman;" parent="1" source="uM1ajFbvMHDyickijH2u-12" target="uM1ajFbvMHDyickijH2u-41" edge="1">
          <mxGeometry relative="1" as="geometry" />
        </mxCell>
        <mxCell id="uM1ajFbvMHDyickijH2u-12" value="Клиент" style="shape=umlActor;verticalLabelPosition=bottom;verticalAlign=top;html=1;outlineConnect=0;aspect=fixed;fontFamily=Times New Roman;" parent="1" vertex="1">
          <mxGeometry x="250" y="545" width="45" height="90" as="geometry" />
        </mxCell>
        <mxCell id="uM1ajFbvMHDyickijH2u-13" style="rounded=0;orthogonalLoop=1;jettySize=auto;html=1;entryX=0;entryY=0.5;entryDx=0;entryDy=0;endArrow=classic;endFill=1;exitX=1;exitY=0.3333333333333333;exitDx=0;exitDy=0;exitPerimeter=0;fontFamily=Times New Roman;" parent="1" source="uM1ajFbvMHDyickijH2u-16" target="uM1ajFbvMHDyickijH2u-22" edge="1">
          <mxGeometry relative="1" as="geometry" />
        </mxCell>
        <mxCell id="uM1ajFbvMHDyickijH2u-14" style="rounded=0;orthogonalLoop=1;jettySize=auto;html=1;entryX=0;entryY=0.5;entryDx=0;entryDy=0;endArrow=classic;endFill=1;exitX=1;exitY=0.3333333333333333;exitDx=0;exitDy=0;exitPerimeter=0;fontFamily=Times New Roman;" parent="1" source="uM1ajFbvMHDyickijH2u-16" target="uM1ajFbvMHDyickijH2u-18" edge="1">
          <mxGeometry relative="1" as="geometry" />
        </mxCell>
        <mxCell id="uM1ajFbvMHDyickijH2u-15" style="rounded=0;orthogonalLoop=1;jettySize=auto;html=1;entryX=0.019;entryY=0.363;entryDx=0;entryDy=0;endArrow=classic;endFill=1;exitX=1;exitY=0.3333333333333333;exitDx=0;exitDy=0;exitPerimeter=0;entryPerimeter=0;fontFamily=Times New Roman;" parent="1" source="uM1ajFbvMHDyickijH2u-16" target="uM1ajFbvMHDyickijH2u-34" edge="1">
          <mxGeometry relative="1" as="geometry" />
        </mxCell>
        <mxCell id="uM1ajFbvMHDyickijH2u-16" value="Гость" style="shape=umlActor;verticalLabelPosition=bottom;verticalAlign=top;html=1;outlineConnect=0;aspect=fixed;fontFamily=Times New Roman;" parent="1" vertex="1">
          <mxGeometry x="250" y="715" width="45" height="90" as="geometry" />
        </mxCell>
        <mxCell id="uM1ajFbvMHDyickijH2u-17" value="Создание отзывов" style="ellipse;whiteSpace=wrap;html=1;fillColor=none;fontFamily=Times New Roman;" parent="1" vertex="1">
          <mxGeometry x="360" y="630" width="180" height="40" as="geometry" />
        </mxCell>
        <mxCell id="uM1ajFbvMHDyickijH2u-18" value="Сохранение блюд&lt;div&gt;меню&amp;nbsp;&lt;span style=&quot;background-color: initial;&quot;&gt;в корзине&lt;/span&gt;&lt;/div&gt;" style="ellipse;whiteSpace=wrap;html=1;fillColor=none;fontFamily=Times New Roman;" parent="1" vertex="1">
          <mxGeometry x="360" y="690" width="180" height="40" as="geometry" />
        </mxCell>
        <mxCell id="uM1ajFbvMHDyickijH2u-19" value="&lt;span style=&quot;color: rgb(0, 0, 0); font-size: 11px; font-style: normal; font-variant-ligatures: normal; font-variant-caps: normal; font-weight: 400; letter-spacing: normal; orphans: 2; text-align: center; text-indent: 0px; text-transform: none; widows: 2; word-spacing: 0px; -webkit-text-stroke-width: 0px; text-decoration-thickness: initial; text-decoration-style: initial; text-decoration-color: initial; float: none; display: inline !important;&quot;&gt;&amp;lt;&amp;lt;расширить&amp;gt;&amp;gt;&lt;/span&gt;" style="rounded=0;orthogonalLoop=1;jettySize=auto;html=1;endArrow=classic;endFill=1;labelBackgroundColor=default;dashed=1;startArrow=none;startFill=0;exitX=1;exitY=0.5;exitDx=0;exitDy=0;entryX=0;entryY=0.5;entryDx=0;entryDy=0;fontFamily=Times New Roman;" parent="1" source="uM1ajFbvMHDyickijH2u-33" target="uM1ajFbvMHDyickijH2u-20" edge="1">
          <mxGeometry relative="1" as="geometry">
            <mxPoint as="offset" />
          </mxGeometry>
        </mxCell>
        <mxCell id="uM1ajFbvMHDyickijH2u-20" value="Редактирование профиля" style="ellipse;whiteSpace=wrap;html=1;fillColor=none;fontFamily=Times New Roman;" parent="1" vertex="1">
          <mxGeometry x="640" y="580" width="180" height="40" as="geometry" />
        </mxCell>
        <mxCell id="uM1ajFbvMHDyickijH2u-21" value="&amp;lt;&amp;lt;расширить&amp;gt;&amp;gt;" style="rounded=0;orthogonalLoop=1;jettySize=auto;html=1;dashed=1;endArrow=classic;endFill=1;entryX=0;entryY=0.5;entryDx=0;entryDy=0;labelBackgroundColor=default;exitX=0.98;exitY=0.643;exitDx=0;exitDy=0;exitPerimeter=0;startArrow=none;startFill=0;fontFamily=Times New Roman;" parent="1" source="uM1ajFbvMHDyickijH2u-33" target="uM1ajFbvMHDyickijH2u-30" edge="1">
          <mxGeometry x="0.0443" y="-1" relative="1" as="geometry">
            <mxPoint x="707.4449495530789" y="585.0513466214218" as="sourcePoint" />
            <mxPoint x="720.5550504469429" y="544.9486533785093" as="targetPoint" />
            <mxPoint as="offset" />
          </mxGeometry>
        </mxCell>
        <mxCell id="uM1ajFbvMHDyickijH2u-22" value="Просмотр информации&lt;div&gt;о ресторане&lt;/div&gt;" style="ellipse;whiteSpace=wrap;html=1;fillColor=none;fontFamily=Times New Roman;" parent="1" vertex="1">
          <mxGeometry x="360" y="760" width="180" height="40" as="geometry" />
        </mxCell>
        <mxCell id="uM1ajFbvMHDyickijH2u-23" value="Модерация пользователей" style="ellipse;whiteSpace=wrap;html=1;fillColor=none;fontFamily=Times New Roman;" parent="1" vertex="1">
          <mxGeometry x="640" y="260" width="180" height="40" as="geometry" />
        </mxCell>
        <mxCell id="uM1ajFbvMHDyickijH2u-24" value="Редактирование&lt;div&gt;категорий блюд&lt;/div&gt;" style="ellipse;whiteSpace=wrap;html=1;fillColor=none;fontFamily=Times New Roman;" parent="1" vertex="1">
          <mxGeometry x="640" y="310" width="180" height="40" as="geometry" />
        </mxCell>
        <mxCell id="uM1ajFbvMHDyickijH2u-25" value="Редактирование&lt;div&gt;блюд меню&lt;/div&gt;" style="ellipse;whiteSpace=wrap;html=1;fillColor=none;fontFamily=Times New Roman;" parent="1" vertex="1">
          <mxGeometry x="360" y="310" width="180" height="40" as="geometry" />
        </mxCell>
        <mxCell id="uM1ajFbvMHDyickijH2u-26" value="&amp;lt;&amp;lt;включить&amp;gt;&amp;gt;" style="rounded=0;orthogonalLoop=1;jettySize=auto;html=1;endArrow=classic;endFill=1;labelBackgroundColor=default;dashed=1;startArrow=none;startFill=0;entryX=0;entryY=0.5;entryDx=0;entryDy=0;exitX=1;exitY=0.5;exitDx=0;exitDy=0;fontFamily=Times New Roman;" parent="1" source="uM1ajFbvMHDyickijH2u-27" target="uM1ajFbvMHDyickijH2u-31" edge="1">
          <mxGeometry relative="1" as="geometry">
            <mxPoint as="offset" />
          </mxGeometry>
        </mxCell>
        <mxCell id="uM1ajFbvMHDyickijH2u-27" value="Управление&lt;div&gt;статусом заказов&lt;/div&gt;" style="ellipse;whiteSpace=wrap;html=1;fillColor=none;fontFamily=Times New Roman;" parent="1" vertex="1">
          <mxGeometry x="360" y="370" width="180" height="40" as="geometry" />
        </mxCell>
        <mxCell id="uM1ajFbvMHDyickijH2u-28" value="&amp;lt;&amp;lt;включить&amp;gt;&amp;gt;" style="rounded=0;orthogonalLoop=1;jettySize=auto;html=1;endArrow=classic;endFill=1;labelBackgroundColor=default;dashed=1;startArrow=none;startFill=0;exitX=0.982;exitY=0.638;exitDx=0;exitDy=0;exitPerimeter=0;entryX=0;entryY=0.5;entryDx=0;entryDy=0;fontFamily=Times New Roman;" parent="1" source="uM1ajFbvMHDyickijH2u-27" target="uM1ajFbvMHDyickijH2u-29" edge="1">
          <mxGeometry x="0.0422" y="-1" relative="1" as="geometry">
            <mxPoint as="offset" />
          </mxGeometry>
        </mxCell>
        <mxCell id="uM1ajFbvMHDyickijH2u-29" value="Завершение&lt;div&gt;обработки заказов&lt;/div&gt;" style="ellipse;whiteSpace=wrap;html=1;fillColor=none;fontFamily=Times New Roman;" parent="1" vertex="1">
          <mxGeometry x="640" y="420" width="180" height="40" as="geometry" />
        </mxCell>
        <mxCell id="uM1ajFbvMHDyickijH2u-30" value="Отмена оформленных заказов" style="ellipse;whiteSpace=wrap;html=1;fillColor=none;fontFamily=Times New Roman;" parent="1" vertex="1">
          <mxGeometry x="640" y="630" width="180" height="40" as="geometry" />
        </mxCell>
        <mxCell id="uM1ajFbvMHDyickijH2u-31" value="Подтверждение заказов" style="ellipse;whiteSpace=wrap;html=1;fillColor=none;fontFamily=Times New Roman;" parent="1" vertex="1">
          <mxGeometry x="640" y="370" width="180" height="40" as="geometry" />
        </mxCell>
        <mxCell id="uM1ajFbvMHDyickijH2u-32" value="Оформление заказов" style="ellipse;whiteSpace=wrap;html=1;fillColor=none;fontFamily=Times New Roman;" parent="1" vertex="1">
          <mxGeometry x="360" y="530" width="180" height="40" as="geometry" />
        </mxCell>
        <mxCell id="uM1ajFbvMHDyickijH2u-33" value="Управление&lt;div&gt;личным кабинетом&lt;/div&gt;" style="ellipse;whiteSpace=wrap;html=1;fillColor=none;fontFamily=Times New Roman;" parent="1" vertex="1">
          <mxGeometry x="360" y="580" width="180" height="40" as="geometry" />
        </mxCell>
        <mxCell id="uM1ajFbvMHDyickijH2u-34" value="Авторизация" style="ellipse;whiteSpace=wrap;html=1;fillColor=none;fontFamily=Times New Roman;" parent="1" vertex="1">
          <mxGeometry x="640" y="750" width="180" height="40" as="geometry" />
        </mxCell>
        <mxCell id="uM1ajFbvMHDyickijH2u-35" value="&amp;lt;&amp;lt;включить&amp;gt;&amp;gt;" style="rounded=0;orthogonalLoop=1;jettySize=auto;html=1;dashed=1;endArrow=classic;endFill=1;startArrow=none;startFill=0;labelBackgroundColor=default;exitX=1;exitY=0.5;exitDx=0;exitDy=0;entryX=0;entryY=0.5;entryDx=0;entryDy=0;fontFamily=Times New Roman;movable=1;resizable=1;rotatable=1;deletable=1;editable=1;locked=0;connectable=1;" parent="1" source="uM1ajFbvMHDyickijH2u-32" target="uM1ajFbvMHDyickijH2u-36" edge="1">
          <mxGeometry relative="1" as="geometry">
            <mxPoint as="offset" />
          </mxGeometry>
        </mxCell>
        <mxCell id="uM1ajFbvMHDyickijH2u-36" value="Добавление&lt;div&gt;адресов доставки&lt;/div&gt;" style="ellipse;whiteSpace=wrap;html=1;fillColor=none;fontFamily=Times New Roman;" parent="1" vertex="1">
          <mxGeometry x="640" y="530" width="180" height="40" as="geometry" />
        </mxCell>
        <mxCell id="uM1ajFbvMHDyickijH2u-37" value="Модерация отзывов" style="ellipse;whiteSpace=wrap;html=1;fillColor=none;fontFamily=Times New Roman;" parent="1" vertex="1">
          <mxGeometry x="640" y="210" width="180" height="40" as="geometry" />
        </mxCell>
        <mxCell id="uM1ajFbvMHDyickijH2u-38" value="Редактирование&lt;div&gt;столиков&amp;nbsp;&lt;span style=&quot;background-color: initial;&quot;&gt;ресторана&lt;/span&gt;&lt;/div&gt;" style="ellipse;whiteSpace=wrap;html=1;fillColor=none;fontFamily=Times New Roman;" parent="1" vertex="1">
          <mxGeometry x="360" y="210" width="180" height="40" as="geometry" />
        </mxCell>
        <mxCell id="uM1ajFbvMHDyickijH2u-39" value="Просмотр ближайших бронирований" style="ellipse;whiteSpace=wrap;html=1;fillColor=none;fontFamily=Times New Roman;" parent="1" vertex="1">
          <mxGeometry x="360" y="420" width="180" height="40" as="geometry" />
        </mxCell>
        <mxCell id="uM1ajFbvMHDyickijH2u-40" value="" style="rounded=0;orthogonalLoop=1;jettySize=auto;html=1;endArrow=block;endFill=0;edgeStyle=orthogonalEdgeStyle;labelBackgroundColor=none;fontFamily=Times New Roman;" parent="1" edge="1">
          <mxGeometry x="-0.0222" relative="1" as="geometry">
            <mxPoint x="272.5" y="495" as="sourcePoint" />
            <mxPoint x="272.5" y="545" as="targetPoint" />
            <Array as="points" />
            <mxPoint as="offset" />
          </mxGeometry>
        </mxCell>
        <mxCell id="uM1ajFbvMHDyickijH2u-41" value="Бронирование столиков" style="ellipse;whiteSpace=wrap;html=1;fillColor=none;fontFamily=Times New Roman;" parent="1" vertex="1">
          <mxGeometry x="360" y="480" width="180" height="40" as="geometry" />
        </mxCell>
        <mxCell id="uM1ajFbvMHDyickijH2u-42" style="rounded=0;orthogonalLoop=1;jettySize=auto;html=1;entryX=0.016;entryY=0.364;entryDx=0;entryDy=0;endArrow=classic;endFill=1;entryPerimeter=0;exitX=1;exitY=0.3333333333333333;exitDx=0;exitDy=0;exitPerimeter=0;fontFamily=Times New Roman;" parent="1" source="uM1ajFbvMHDyickijH2u-4" target="uM1ajFbvMHDyickijH2u-24" edge="1">
          <mxGeometry relative="1" as="geometry">
            <mxPoint x="283" y="283" as="sourcePoint" />
            <mxPoint x="630" y="235" as="targetPoint" />
          </mxGeometry>
        </mxCell>
        <mxCell id="uM1ajFbvMHDyickijH2u-43" style="rounded=0;orthogonalLoop=1;jettySize=auto;html=1;entryX=0;entryY=0.5;entryDx=0;entryDy=0;endArrow=classic;endFill=1;exitX=1;exitY=0.3333333333333333;exitDx=0;exitDy=0;exitPerimeter=0;fontFamily=Times New Roman;" parent="1" source="uM1ajFbvMHDyickijH2u-4" target="uM1ajFbvMHDyickijH2u-23" edge="1">
          <mxGeometry relative="1" as="geometry">
            <mxPoint x="293" y="293" as="sourcePoint" />
            <mxPoint x="640" y="245" as="targetPoint" />
          </mxGeometry>
        </mxCell>
        <mxCell id="uM1ajFbvMHDyickijH2u-44" style="rounded=0;orthogonalLoop=1;jettySize=auto;html=1;entryX=0.019;entryY=0.636;entryDx=0;entryDy=0;endArrow=classic;endFill=1;entryPerimeter=0;exitX=1;exitY=0.3333333333333333;exitDx=0;exitDy=0;exitPerimeter=0;fontFamily=Times New Roman;" parent="1" source="uM1ajFbvMHDyickijH2u-4" target="uM1ajFbvMHDyickijH2u-37" edge="1">
          <mxGeometry relative="1" as="geometry">
            <mxPoint x="303" y="303" as="sourcePoint" />
            <mxPoint x="650" y="255" as="targetPoint" />
          </mxGeometry>
        </mxCell>
        <mxCell id="uM1ajFbvMHDyickijH2u-45" style="rounded=0;orthogonalLoop=1;jettySize=auto;html=1;entryX=0;entryY=0.5;entryDx=0;entryDy=0;endArrow=classic;endFill=1;exitX=1;exitY=0.3333333333333333;exitDx=0;exitDy=0;exitPerimeter=0;fontFamily=Times New Roman;" parent="1" source="uM1ajFbvMHDyickijH2u-4" target="uM1ajFbvMHDyickijH2u-38" edge="1">
          <mxGeometry relative="1" as="geometry">
            <mxPoint x="300" y="285" as="sourcePoint" />
            <mxPoint x="660" y="265" as="targetPoint" />
          </mxGeometry>
        </mxCell>
        <mxCell id="uM1ajFbvMHDyickijH2u-46" value="" style="rounded=0;orthogonalLoop=1;jettySize=auto;html=1;endArrow=block;endFill=0;edgeStyle=orthogonalEdgeStyle;labelBackgroundColor=none;fontFamily=Times New Roman;" parent="1" edge="1">
          <mxGeometry x="-0.0222" relative="1" as="geometry">
            <mxPoint x="272.5" y="655" as="sourcePoint" />
            <mxPoint x="272.5" y="715" as="targetPoint" />
            <Array as="points" />
            <mxPoint as="offset" />
          </mxGeometry>
        </mxCell>
        <mxCell id="uM1ajFbvMHDyickijH2u-47" value="Регистрация" style="ellipse;whiteSpace=wrap;html=1;fillColor=none;fontFamily=Times New Roman;" parent="1" vertex="1">
          <mxGeometry x="640" y="700" width="180" height="40" as="geometry" />
        </mxCell>
        <mxCell id="uM1ajFbvMHDyickijH2u-48" style="rounded=0;orthogonalLoop=1;jettySize=auto;html=1;entryX=0.02;entryY=0.635;entryDx=0;entryDy=0;endArrow=classic;endFill=1;entryPerimeter=0;exitX=1;exitY=0.3333333333333333;exitDx=0;exitDy=0;exitPerimeter=0;fontFamily=Times New Roman;" parent="1" source="uM1ajFbvMHDyickijH2u-16" target="uM1ajFbvMHDyickijH2u-47" edge="1">
          <mxGeometry relative="1" as="geometry">
            <mxPoint x="300" y="750" as="sourcePoint" />
            <mxPoint x="625" y="755" as="targetPoint" />
          </mxGeometry>
        </mxCell>
      </root>
    </mxGraphModel>
  </diagram>
</mxfile>
